<?xml version="1.0" encoding="utf-8"?>
<!-- Generator: Adobe Illustrator 16.0.0, SVG Export Plug-In . SVG Version: 6.00 Build 0)  -->
<!DOCTYPE svg PUBLIC "-//W3C//DTD SVG 1.1//EN" "http://www.w3.org/Graphics/SVG/1.1/DTD/svg11.dtd">
<svg version="1.1" id="Capa_1" xmlns="http://www.w3.org/2000/svg" xmlns:xlink="http://www.w3.org/1999/xlink" x="0px" y="0px"
	 width="32px" height="32px" viewBox="-286.5 -28 32 32" enable-background="new -286.5 -28 32 32" xml:space="preserve">
<path fill="#3A3A3A" d="M-386.5-27c-8.284,0-15,6.716-15,15s6.716,15,15,15s15-6.716,15-15C-371.5-20.286-378.216-27-386.5-27z
	 M-379.037-15.367l0.011,0.478c0,4.882-3.715,10.507-10.509,10.507c-2.084,0-4.025-0.611-5.661-1.659
	c0.29,0.033,0.583,0.053,0.882,0.053c1.73,0,3.322-0.591,4.586-1.58c-1.616-0.029-2.979-1.099-3.45-2.565
	c0.227,0.042,0.456,0.064,0.696,0.064c0.337,0,0.664-0.044,0.973-0.128c-1.689-0.341-2.963-1.832-2.963-3.62v-0.047
	c0.499,0.277,1.067,0.443,1.673,0.463c-0.991-0.662-1.643-1.793-1.643-3.074c0-0.676,0.181-1.31,0.498-1.856
	c1.821,2.235,4.544,3.706,7.613,3.859c-0.063-0.271-0.095-0.554-0.095-0.842c0-2.038,1.653-3.691,3.693-3.691
	c1.062,0,2.021,0.448,2.697,1.166c0.84-0.167,1.631-0.475,2.346-0.896c-0.276,0.862-0.861,1.585-1.624,2.043
	c0.745-0.088,1.459-0.29,2.12-0.582C-377.687-16.536-378.315-15.886-379.037-15.367z"/>
<path d="M-78.04-77.358c-35.542,0-64.358,28.816-64.358,64.358s28.816,64.358,64.358,64.358c35.542,0,64.359-28.816,64.359-64.358
	C-13.681-48.55-42.499-77.358-78.04-77.358z M-39.812-30.512c-4.321,24.307-28.432,44.898-35.679,49.597
	c-7.255,4.698-13.87-1.886-16.274-6.874c-2.742-5.664-10.971-36.457-13.127-39.007c-2.157-2.553-8.626,2.55-8.626,2.55l-3.135-4.113
	c0,0,13.136-15.677,23.129-17.649c10.594-2.082,10.579,16.274,13.128,26.46c2.471,9.856,4.121,15.489,6.273,15.489
	c2.156,0,6.281-5.487,10.782-13.914c4.518-8.43-0.196-15.877-9.018-10.586C-68.817-49.724-35.498-54.819-39.812-30.512z"/>
<g>
	<path fill="#1D1D1B" d="M-65.193-1.47c-1.973,0-3.835,1.095-5.588,3.286v-13.231h-5.505v40.511h5.505v-2.959
		c1.808,2.247,3.669,3.37,5.588,3.37c2.245,0,3.696-1.149,4.354-3.451c0.382-1.152,0.575-3.149,0.575-6V8.059
		c0-2.902-0.193-4.93-0.575-6.08C-61.497-0.322-62.948-1.47-65.193-1.47z M-65.687,20.469c0,2.687-0.795,4.025-2.384,4.025
		c-0.932,0-1.835-0.438-2.711-1.313V4.772C-69.906,3.9-69.002,3.46-68.07,3.46c1.588,0,2.384,1.37,2.384,4.109V20.469z"/>
	<path fill="#1D1D1B" d="M-47.774-1.47c-2.793,0-4.986,1.042-6.574,3.123c-1.096,1.476-1.644,3.836-1.644,7.066v10.603
		c0,3.231,0.575,5.584,1.726,7.064c1.587,2.084,3.807,3.123,6.656,3.123c2.903,0,5.095-1.095,6.574-3.287
		c0.657-0.986,1.068-2.08,1.233-3.288c0.108-0.764,0.163-1.945,0.163-3.534V18.66h-5.588c0,0.604,0,1.191,0,1.766
		s-0.013,1.026-0.04,1.357c-0.028,0.326-0.041,0.52-0.041,0.574c-0.328,1.426-1.151,2.134-2.465,2.134
		c-1.863,0-2.793-1.397-2.793-4.188v-5.342h10.929V8.717c0-3.175-0.576-5.531-1.725-7.065C-42.843-0.427-44.979-1.47-47.774-1.47z
		 M-45.144,10.444h-5.423V7.648c0-2.793,0.903-4.188,2.71-4.188c1.809,0,2.712,1.396,2.712,4.188V10.444z"/>
	<path fill="#1D1D1B" d="M-86.477,21.947c-1.205,1.699-2.356,2.547-3.451,2.547c-0.768,0-1.179-0.411-1.231-1.233
		c-0.056-0.106-0.083-0.821-0.083-2.134V-1.06h-5.422v23.83c0,2.084,0.165,3.56,0.493,4.436c0.493,1.537,1.644,2.302,3.451,2.302
		c2.026,0,4.109-1.233,6.245-3.698v3.287h5.505V-1.06h-5.505L-86.477,21.947L-86.477,21.947z"/>
	<path fill="#1D1D1B" d="M-79.327-32.038c1.753,0,2.629-1.399,2.629-4.192v-12.821c0-2.847-0.876-4.272-2.629-4.272
		c-1.754,0-2.63,1.425-2.63,4.272v12.821C-81.957-33.438-81.081-32.038-79.327-32.038z"/>
	<polygon fill="#1D1D1B" points="-116.551,-5.663 -110.142,-5.663 -110.142,29.097 -104.062,29.097 -104.062,-5.663 -97.488,-5.663 
		-97.488,-11.415 -116.551,-11.415 	"/>
	<path fill="#1D1D1B" d="M-38.652-76.083h-78.885c-6.519,0-12.093,2.317-16.723,6.942c-4.629,4.632-6.943,10.205-6.943,16.724
		v78.883c0,6.52,2.314,12.095,6.943,16.72c4.628,4.629,10.202,6.946,16.723,6.946h78.885c6.518,0,12.092-2.316,16.721-6.946
		c4.628-4.625,6.944-10.2,6.944-16.72v-78.883c0-6.52-2.315-12.092-6.944-16.724C-26.56-73.766-32.134-76.083-38.652-76.083z
		 M-66.672-57.841h5.505v22.35c0,1.315,0.028,2.029,0.083,2.138c0.055,0.88,0.493,1.315,1.314,1.315
		c1.095,0,2.246-0.848,3.451-2.549v-23.254h5.505v30.404h-5.505v-3.288c-2.247,2.465-4.356,3.698-6.328,3.698
		c-1.754,0-2.931-0.739-3.533-2.218c-0.328-0.986-0.493-2.491-0.493-4.519v-24.077H-66.672z M-87.463-47.981
		c0-3.174,0.576-5.56,1.727-7.147c1.479-2.08,3.615-3.123,6.409-3.123c2.683,0,4.819,1.043,6.409,3.123
		c1.151,1.589,1.725,3.973,1.725,7.147v10.683c0,3.286-0.576,5.671-1.725,7.147c-1.589,2.084-3.726,3.123-6.409,3.123
		c-2.793,0-4.93-1.04-6.409-3.123c-1.151-1.585-1.727-3.968-1.727-7.147V-47.981z M-102.253-68.276l4.356,16.023l4.19-16.023h6.163
		l-7.395,24.324v16.515h-6.081v-16.515c-0.604-3.014-1.863-7.34-3.78-12.984c-0.384-1.258-1.016-3.149-1.892-5.671
		c-0.876-2.517-1.535-4.408-1.972-5.669H-102.253z M-34.543,30.904c-0.549,2.358-1.713,4.355-3.493,6
		c-1.781,1.644-3.849,2.603-6.204,2.875c-7.505,0.821-18.791,1.232-33.854,1.232c-15.066,0-26.35-0.41-33.854-1.232
		c-2.356-0.272-4.425-1.233-6.204-2.875c-1.781-1.645-2.945-3.64-3.492-6c-1.096-4.601-1.644-11.724-1.644-21.365
		c0-9.476,0.547-16.598,1.644-21.365c0.547-2.408,1.712-4.42,3.492-6.037c1.779-1.617,3.875-2.562,6.286-2.838
		c7.449-0.821,18.707-1.233,33.773-1.233c15.119,0,26.403,0.411,33.854,1.233c2.356,0.276,4.438,1.219,6.246,2.838
		c1.809,1.617,2.986,3.629,3.534,6.037c1.041,4.549,1.562,11.668,1.562,21.365C-32.901,19.181-33.448,26.304-34.543,30.904z"/>
</g>
<path fill="#3A3A3A" d="M-270.5-27c-8.284,0-15,6.716-15,15s6.716,15,15,15s15-6.716,15-15C-255.5-20.286-262.216-27-270.5-27z
	 M-266.622-12.002L-269.081-12l-0.002,9h-3.373v-9h-2.25v-3.101l2.25-0.002l-0.004-1.826c0-2.531,0.686-4.07,3.666-4.07h2.483v3.103
	h-1.553c-1.161,0-1.218,0.433-1.218,1.242l-0.003,1.552h2.791L-266.622-12.002z"/>
</svg>
