<?xml version="1.0" encoding="utf-8"?>
<!-- Generator: Adobe Illustrator 16.0.0, SVG Export Plug-In . SVG Version: 6.00 Build 0)  -->
<!DOCTYPE svg PUBLIC "-//W3C//DTD SVG 1.1//EN" "http://www.w3.org/Graphics/SVG/1.1/DTD/svg11.dtd">
<svg version="1.1" id="Capa_1" xmlns="http://www.w3.org/2000/svg" xmlns:xlink="http://www.w3.org/1999/xlink" x="0px" y="0px"
	 width="32px" height="32px" viewBox="-286.5 -28 32 32" enable-background="new -286.5 -28 32 32" xml:space="preserve">
<path fill="#3A3A3A" d="M-270.5-27c-8.284,0-15,6.716-15,15s6.716,15,15,15s15-6.716,15-15C-255.5-20.286-262.216-27-270.5-27z
	 M-263.037-15.367l0.011,0.478c0,4.882-3.715,10.507-10.509,10.507c-2.084,0-4.025-0.611-5.661-1.659
	c0.29,0.033,0.583,0.053,0.882,0.053c1.73,0,3.322-0.591,4.586-1.58c-1.616-0.029-2.979-1.099-3.45-2.565
	c0.227,0.042,0.456,0.064,0.696,0.064c0.337,0,0.664-0.044,0.973-0.128c-1.689-0.341-2.963-1.832-2.963-3.62v-0.047
	c0.499,0.277,1.067,0.443,1.673,0.463c-0.991-0.662-1.643-1.793-1.643-3.074c0-0.676,0.181-1.31,0.498-1.856
	c1.821,2.235,4.544,3.706,7.613,3.859c-0.063-0.271-0.095-0.554-0.095-0.842c0-2.038,1.653-3.691,3.693-3.691
	c1.062,0,2.021,0.448,2.697,1.166c0.84-0.167,1.631-0.475,2.346-0.896c-0.276,0.862-0.861,1.585-1.624,2.043
	c0.745-0.088,1.459-0.29,2.12-0.582C-261.687-16.536-262.315-15.886-263.037-15.367z"/>
<path display="none" d="M-273-77.358c-35.542,0-64.358,28.816-64.358,64.358S-308.542,51.358-273,51.358
	c35.542,0,64.359-28.816,64.359-64.358C-208.641-48.55-237.458-77.358-273-77.358z M-234.771-30.512
	c-4.321,24.307-28.432,44.898-35.679,49.597c-7.255,4.698-13.87-1.886-16.274-6.874c-2.742-5.664-10.971-36.457-13.127-39.007
	c-2.157-2.553-8.626,2.55-8.626,2.55l-3.135-4.113c0,0,13.136-15.677,23.129-17.649c10.594-2.082,10.579,16.274,13.128,26.46
	c2.471,9.856,4.121,15.489,6.273,15.489c2.156,0,6.281-5.487,10.782-13.914c4.518-8.43-0.196-15.877-9.018-10.586
	C-263.777-49.724-230.458-54.819-234.771-30.512z"/>
<g display="none">
	<path display="inline" fill="#1D1D1B" d="M-260.153-1.47c-1.973,0-3.835,1.095-5.588,3.286v-13.231h-5.505v40.511h5.505v-2.959
		c1.808,2.247,3.669,3.37,5.588,3.37c2.245,0,3.696-1.149,4.354-3.451c0.382-1.152,0.575-3.149,0.575-6V8.059
		c0-2.902-0.193-4.93-0.575-6.08C-256.457-0.322-257.908-1.47-260.153-1.47z M-260.646,20.469c0,2.687-0.795,4.025-2.384,4.025
		c-0.932,0-1.835-0.438-2.711-1.313V4.772c0.875-0.873,1.779-1.312,2.711-1.312c1.588,0,2.384,1.37,2.384,4.109V20.469z"/>
	<path display="inline" fill="#1D1D1B" d="M-242.734-1.47c-2.793,0-4.986,1.042-6.574,3.123c-1.096,1.476-1.644,3.836-1.644,7.066
		v10.603c0,3.231,0.575,5.584,1.726,7.064c1.587,2.084,3.807,3.123,6.656,3.123c2.903,0,5.095-1.095,6.574-3.287
		c0.657-0.986,1.068-2.08,1.233-3.288c0.108-0.764,0.163-1.945,0.163-3.534V18.66h-5.588c0,0.604,0,1.191,0,1.766
		s-0.013,1.026-0.04,1.357c-0.028,0.326-0.041,0.52-0.041,0.574c-0.328,1.426-1.151,2.134-2.465,2.134
		c-1.863,0-2.793-1.397-2.793-4.188v-5.342h10.929V8.717c0-3.175-0.576-5.531-1.725-7.065C-237.803-0.427-239.939-1.47-242.734-1.47
		z M-240.104,10.444h-5.423V7.648c0-2.793,0.903-4.188,2.71-4.188c1.809,0,2.712,1.396,2.712,4.188V10.444z"/>
	<path display="inline" fill="#1D1D1B" d="M-281.437,21.947c-1.205,1.699-2.356,2.547-3.451,2.547c-0.768,0-1.179-0.411-1.231-1.233
		c-0.056-0.106-0.083-0.821-0.083-2.134V-1.06h-5.422v23.83c0,2.084,0.165,3.56,0.493,4.436c0.493,1.537,1.644,2.302,3.451,2.302
		c2.026,0,4.109-1.233,6.245-3.698v3.287h5.505V-1.06h-5.505L-281.437,21.947L-281.437,21.947z"/>
	<path display="inline" fill="#1D1D1B" d="M-274.287-32.038c1.753,0,2.629-1.399,2.629-4.192v-12.821
		c0-2.847-0.876-4.272-2.629-4.272c-1.754,0-2.63,1.425-2.63,4.272v12.821C-276.917-33.438-276.041-32.038-274.287-32.038z"/>
	<polygon display="inline" fill="#1D1D1B" points="-311.511,-5.663 -305.102,-5.663 -305.102,29.097 -299.021,29.097 
		-299.021,-5.663 -292.448,-5.663 -292.448,-11.415 -311.511,-11.415 	"/>
	<path display="inline" fill="#1D1D1B" d="M-233.612-76.083h-78.885c-6.519,0-12.093,2.317-16.723,6.942
		c-4.629,4.632-6.943,10.205-6.943,16.724v78.883c0,6.52,2.314,12.095,6.943,16.72c4.628,4.629,10.202,6.946,16.723,6.946h78.885
		c6.518,0,12.092-2.316,16.721-6.946c4.628-4.625,6.944-10.2,6.944-16.72v-78.883c0-6.52-2.315-12.092-6.944-16.724
		C-221.52-73.766-227.094-76.083-233.612-76.083z M-261.632-57.841h5.505v22.35c0,1.315,0.028,2.029,0.083,2.138
		c0.055,0.88,0.493,1.315,1.314,1.315c1.095,0,2.246-0.848,3.451-2.549v-23.254h5.505v30.404h-5.505v-3.288
		c-2.247,2.465-4.356,3.698-6.328,3.698c-1.754,0-2.931-0.739-3.533-2.218c-0.328-0.986-0.493-2.491-0.493-4.519v-24.077H-261.632z
		 M-282.423-47.981c0-3.174,0.576-5.56,1.727-7.147c1.479-2.08,3.615-3.123,6.409-3.123c2.683,0,4.819,1.043,6.409,3.123
		c1.151,1.589,1.725,3.973,1.725,7.147v10.683c0,3.286-0.576,5.671-1.725,7.147c-1.589,2.084-3.726,3.123-6.409,3.123
		c-2.793,0-4.93-1.04-6.409-3.123c-1.151-1.585-1.727-3.968-1.727-7.147V-47.981z M-297.213-68.276l4.356,16.023l4.19-16.023h6.163
		l-7.395,24.324v16.515h-6.081v-16.515c-0.604-3.014-1.863-7.34-3.78-12.984c-0.384-1.258-1.016-3.149-1.892-5.671
		c-0.876-2.517-1.535-4.408-1.972-5.669H-297.213z M-229.503,30.904c-0.549,2.358-1.713,4.355-3.493,6
		c-1.781,1.644-3.849,2.603-6.204,2.875c-7.505,0.821-18.791,1.232-33.854,1.232c-15.066,0-26.35-0.41-33.854-1.232
		c-2.356-0.272-4.425-1.233-6.204-2.875c-1.781-1.645-2.945-3.64-3.492-6c-1.096-4.601-1.644-11.724-1.644-21.365
		c0-9.476,0.547-16.598,1.644-21.365c0.547-2.408,1.712-4.42,3.492-6.037c1.779-1.617,3.875-2.562,6.286-2.838
		c7.449-0.821,18.707-1.233,33.773-1.233c15.119,0,26.403,0.411,33.854,1.233c2.356,0.276,4.438,1.219,6.246,2.838
		c1.809,1.617,2.986,3.629,3.534,6.037c1.041,4.549,1.562,11.668,1.562,21.365C-227.861,19.181-228.408,26.304-229.503,30.904z"/>
</g>
<path display="none" d="M-272.767-73.75c-33.935,0-61.448,27.514-61.448,61.448c0,33.935,27.513,61.448,61.448,61.448
	c33.934,0,61.448-27.514,61.448-61.448C-211.319-46.243-238.833-73.75-272.767-73.75z M-256.88-12.31l-10.074,0.008l-0.007,36.867
	h-13.817v-36.867h-9.219v-12.703l9.219-0.011l-0.015-7.479c0-10.37,2.809-16.675,15.017-16.675h10.171v12.71h-6.361
	c-4.755,0-4.988,1.774-4.988,5.086l-0.015,6.357h11.431L-256.88-12.31z"/>
</svg>
