<?xml version="1.0" encoding="utf-8"?>
<!-- Generator: Adobe Illustrator 16.0.0, SVG Export Plug-In . SVG Version: 6.00 Build 0)  -->
<!DOCTYPE svg PUBLIC "-//W3C//DTD SVG 1.1//EN" "http://www.w3.org/Graphics/SVG/1.1/DTD/svg11.dtd">
<svg version="1.1" id="Capa_1" xmlns="http://www.w3.org/2000/svg" xmlns:xlink="http://www.w3.org/1999/xlink" x="0px" y="0px"
	 width="32px" height="32px" viewBox="-286.5 -28 32 32" enable-background="new -286.5 -28 32 32" xml:space="preserve">
<path fill="#3A3A3A" d="M-386.5-27c-8.284,0-15,6.716-15,15s6.716,15,15,15s15-6.716,15-15C-371.5-20.286-378.216-27-386.5-27z
	 M-379.037-15.367l0.011,0.478c0,4.882-3.715,10.507-10.509,10.507c-2.084,0-4.025-0.611-5.661-1.659
	c0.29,0.033,0.583,0.053,0.882,0.053c1.73,0,3.322-0.591,4.586-1.58c-1.616-0.029-2.979-1.099-3.45-2.565
	c0.227,0.042,0.456,0.064,0.696,0.064c0.337,0,0.664-0.044,0.973-0.128c-1.689-0.341-2.963-1.832-2.963-3.62v-0.047
	c0.499,0.277,1.067,0.443,1.673,0.463c-0.991-0.662-1.643-1.793-1.643-3.074c0-0.676,0.181-1.31,0.498-1.856
	c1.821,2.235,4.544,3.706,7.613,3.859c-0.063-0.271-0.095-0.554-0.095-0.842c0-2.038,1.653-3.691,3.693-3.691
	c1.062,0,2.021,0.448,2.697,1.166c0.84-0.167,1.631-0.475,2.346-0.896c-0.276,0.862-0.861,1.585-1.624,2.043
	c0.745-0.088,1.459-0.29,2.12-0.582C-377.687-16.536-378.315-15.886-379.037-15.367z"/>
<path fill="#3A3A3A" d="M-270.5-85.038c-8.284,0-15,6.716-15,15s6.716,15,15,15s15-6.716,15-15
	C-255.5-78.324-262.216-85.038-270.5-85.038z M-261.59-74.12c-1.007,5.666-6.627,10.464-8.316,11.56
	c-1.691,1.095-3.233-0.439-3.793-1.602c-0.639-1.32-2.557-8.497-3.06-9.091c-0.502-0.595-2.01,0.594-2.01,0.594l-0.73-0.958
	c0,0,3.062-3.654,5.391-4.114c2.469-0.485,2.465,3.793,3.06,6.167c0.576,2.297,0.96,3.61,1.462,3.61
	c0.503,0,1.464-1.279,2.513-3.243c1.053-1.965-0.046-3.7-2.102-2.467C-268.351-78.597-260.585-79.785-261.59-74.12z"/>
<g>
	<path fill="#3A3A3A" d="M-267.433-9.265c-0.469,0-0.912,0.26-1.329,0.781v-3.145h-1.308V-2h1.308v-0.704
		c0.43,0.534,0.872,0.801,1.329,0.801c0.533,0,0.878-0.273,1.035-0.82c0.091-0.274,0.137-0.749,0.137-1.426V-7
		c0-0.69-0.046-1.172-0.137-1.445C-266.555-8.993-266.9-9.265-267.433-9.265z M-267.551-4.051c0,0.639-0.189,0.957-0.566,0.957
		c-0.222,0-0.437-0.104-0.645-0.312v-4.375c0.208-0.208,0.423-0.312,0.645-0.312c0.377,0,0.566,0.326,0.566,0.977V-4.051z"/>
	<path fill="#3A3A3A" d="M-263.293-9.265c-0.664,0-1.185,0.248-1.562,0.742c-0.261,0.351-0.391,0.912-0.391,1.679v2.52
		c0,0.768,0.137,1.327,0.41,1.679c0.377,0.496,0.905,0.742,1.582,0.742c0.69,0,1.211-0.26,1.562-0.781
		c0.156-0.234,0.254-0.494,0.293-0.781c0.026-0.182,0.039-0.462,0.039-0.84v-0.176h-1.328c0,0.144,0,0.283,0,0.42
		c0,0.136-0.003,0.244-0.01,0.323c-0.006,0.077-0.01,0.124-0.01,0.136c-0.078,0.339-0.273,0.507-0.586,0.507
		c-0.443,0-0.664-0.332-0.664-0.996v-1.27h2.598v-1.484c0-0.754-0.137-1.314-0.41-1.679C-262.121-9.018-262.629-9.265-263.293-9.265
		z M-262.668-6.434h-1.289v-0.665c0-0.664,0.215-0.996,0.645-0.996s0.645,0.332,0.645,0.996V-6.434z"/>
	<path fill="#3A3A3A" d="M-272.492-3.699c-0.287,0.404-0.56,0.605-0.82,0.605c-0.183,0-0.28-0.098-0.293-0.293
		c-0.013-0.025-0.02-0.195-0.02-0.507v-5.273h-1.289v5.664c0,0.496,0.039,0.846,0.117,1.054c0.117,0.366,0.391,0.547,0.82,0.547
		c0.482,0,0.977-0.293,1.484-0.879V-2h1.309v-7.168h-1.309V-3.699L-272.492-3.699z"/>
	<path fill="#3A3A3A" d="M-270.793-16.531c0.417,0,0.625-0.333,0.625-0.996v-3.047c0-0.677-0.208-1.016-0.625-1.016
		s-0.625,0.339-0.625,1.016v3.047C-271.418-16.864-271.21-16.531-270.793-16.531z"/>
	<polygon fill="#3A3A3A" points="-279.641,-10.262 -278.117,-10.262 -278.117,-6.875 -278.117,-2 -276.672,-2 -276.672,-7 
		-276.672,-10.262 -275.109,-10.262 -275.109,-11.629 -279.641,-11.629 -279.641,-10.262 	"/>
	<path fill="#3A3A3A" d="M-261.125-27h-18.75c-1.549,0-2.874,0.551-3.975,1.65c-1.101,1.101-1.65,2.426-1.65,3.975v18.75
		c0,1.549,0.55,2.875,1.65,3.974c1.1,1.101,2.425,1.651,3.975,1.651h18.75c1.549,0,2.874-0.551,3.975-1.651
		c1.1-1.099,1.65-2.424,1.65-3.974v-18.75c0-1.549-0.55-2.874-1.65-3.975C-258.251-26.449-259.576-27-261.125-27z M-267.785-22.664
		h1.309v5.312c0,0.313,0.007,0.482,0.02,0.508c0.013,0.209,0.117,0.312,0.312,0.312c0.26,0,0.534-0.201,0.82-0.605v-5.527h1.309
		v7.227h-1.309v-0.782c-0.534,0.586-1.036,0.879-1.504,0.879c-0.417,0-0.697-0.175-0.84-0.527c-0.078-0.234-0.117-0.592-0.117-1.074
		V-22.664L-267.785-22.664z M-272.727-20.321c0-0.754,0.137-1.321,0.41-1.699c0.352-0.494,0.859-0.742,1.523-0.742
		c0.638,0,1.146,0.248,1.523,0.742c0.274,0.378,0.41,0.944,0.41,1.699v2.539c0,0.781-0.137,1.348-0.41,1.699
		c-0.377,0.495-0.885,0.742-1.523,0.742c-0.664,0-1.172-0.248-1.523-0.742c-0.273-0.377-0.41-0.943-0.41-1.699V-20.321z
		 M-276.242-25.145l1.036,3.809l0.996-3.809h1.465l-1.757,5.782v3.925h-1.445v-3.925c-0.144-0.716-0.443-1.745-0.898-3.086
		c-0.092-0.299-0.242-0.749-0.45-1.348c-0.208-0.598-0.365-1.048-0.469-1.348H-276.242z M-260.148-1.57
		c-0.13,0.561-0.407,1.035-0.83,1.426c-0.423,0.391-0.915,0.619-1.475,0.684c-1.784,0.195-4.466,0.293-8.046,0.293
		c-3.581,0-6.263-0.098-8.047-0.293c-0.56-0.065-1.052-0.293-1.475-0.684c-0.423-0.391-0.7-0.865-0.83-1.426
		c-0.261-1.094-0.391-2.787-0.391-5.079c0-2.252,0.13-3.945,0.391-5.078c0.13-0.572,0.407-1.05,0.83-1.435
		c0.423-0.385,0.921-0.609,1.494-0.675c1.771-0.195,4.446-0.293,8.027-0.293c3.594,0,6.276,0.098,8.047,0.293
		c0.56,0.066,1.055,0.29,1.484,0.675c0.43,0.384,0.71,0.862,0.84,1.435c0.248,1.082,0.371,2.773,0.371,5.078
		C-259.758-4.357-259.888-2.664-260.148-1.57z"/>
</g>
<path fill="#3A3A3A" d="M-386.5-62.038c-8.284,0-15,6.716-15,15s6.716,15,15,15s15-6.716,15-15
	C-371.5-55.324-378.216-62.038-386.5-62.038z M-382.622-47.04l-2.459,0.002l-0.002,9h-3.373v-9h-2.25v-3.101l2.25-0.002
	l-0.004-1.826c0-2.531,0.686-4.07,3.666-4.07h2.483v3.103h-1.553c-1.161,0-1.218,0.433-1.218,1.242l-0.003,1.552h2.791
	L-382.622-47.04z"/>
</svg>
